Coordinates
version=1
nRows=8
nColumns=33
inDegrees=yes

Units are S.I. units (second, meters, Newtons, ...)
Angles are in degrees.

endheader
time	ground_thorax_rot_x	ground_thorax_rot_y	ground_thorax_rot_z	ground_thorax_tx	ground_thorax_ty	ground_thorax_tz	clav_prot_r	clav_elev_r	scapula_abduction_r	scapula_elevation_r	scapula_upward_rot_r	scapula_winging_r	shoulder_elv_r	plane_of_elev_r	axial_rot_r	elbow_flexion_r	pro_sup_r	wrist_flex_r	wrist_dev_r	clav_prot_l	clav_elev_l	scapula_abduction_l	scapula_elevation_l	scapula_upward_rot_l	scapula_winging_l	shoulder_elv_l	plane_of_elev_l	axial_rot_l	elbow_flexion_l	pro_sup_l	wrist_flex_l	wrist_dev_l
      9.92000000	     36.80681748	     11.28726786	     16.27145000	   -111.62207214	    781.84869063	      7.09134415	     13.11599130	     38.26636882	     45.00000000	     38.46165779	    -14.30702027	  -2611.08369654	  -1380.54195567	     30.56930692	     56.17653858	   1811.57442422	    390.31339664	     18.81625729	      9.23693929	     -5.78628582	    -45.00000000	    -45.00000000	     45.00000000	     19.53763211	   2270.00015269	  -4602.09873623	     13.16203644	    179.99999979	   1086.41017021	   -139.22622639	      7.95168959	    -14.97734886
      9.93000000	     36.98675484	     12.16892747	     17.42909124	   -113.38501343	    782.79396730	      7.00116481	     13.94370399	     39.61601667	     45.00000000	     39.41846141	    -16.72722365	  -2610.60545440	  -1380.42133415	     30.73391697	     55.37628485	   1811.80162673	    390.68848671	     18.78889505	      8.93561019	     -5.87783992	    -45.00000000	    -45.00000000	     45.00000000	     20.24602777	   2271.29150334	  -4601.71643750	     13.08444940	    179.99999979	   1086.85709912	   -139.58808079	      7.79244808	    -14.63425358
      9.94000000	     37.10980277	     11.98634979	     16.99323229	   -115.18776672	    783.75867816	      6.91259331	     13.39682747	     39.73514944	     45.00000000	     39.49721197	    -16.02372147	  -2610.65615621	  -1380.24440759	     30.46596887	     55.02598962	   1811.91300137	    390.99138529	     18.88970429	      9.00504870	     -5.89312910	    -45.00000000	    -45.00000000	     45.00000000	     20.49081377	   2271.09190833	  -4601.60171979	     12.94000643	    179.99999979	   1086.58253048	   -139.80947781	      7.90515605	    -14.86128053
      9.95000000	     37.22017827	     12.04882981	     16.94337458	   -117.03174848	    784.74064648	      6.82419112	     13.46096362	     39.96458484	     45.00000000	     39.74428189	    -16.17968180	  -2610.69931935	  -1380.13720802	     30.51241711	     54.91243781	   1812.03141521	    391.28931550	     18.94032302	      8.87828399	     -5.93824295	    -45.00000000	    -45.00000000	     45.00000000	     20.83969561	   2271.27741193	  -4601.40832593	     12.97716497	    179.99999979	   1086.74453054	   -139.99459186	      8.01062085	    -14.92478774
      9.96000000	     37.38929467	     12.15085025	     16.93802960	   -118.91683689	    785.73907895	      6.73465554	     13.72454305	     40.23305334	     45.00000000	     40.13972437	    -16.74947228	  -2610.69742219	  -1380.10917779	     30.74469285	     54.52680974	   1812.09170945	    391.57030062	     18.96163080	      8.75151888	     -5.98199992	    -45.00000000	    -45.00000000	     45.00000000	     21.33599479	   2271.66818203	  -4601.26048846	     13.04926759	    179.99999979	   1086.91683078	   -140.16276695	      8.09315872	    -14.95422362
      9.97000000	     37.55689778	     12.19458786	     16.94006123	   -120.83973180	    786.75371682	      6.64335791	     13.85421131	     40.48731980	     45.00000000	     40.45489078	    -17.10024969	  -2610.69884353	  -1379.99079736	     30.89202768	     54.10422565	   1812.18764045	    391.81221720	     18.99664244	      8.63308022	     -6.03748219	    -45.00000000	    -45.00000000	     45.00000000	     21.78012640	   2272.00149040	  -4601.05168207	     13.05531726	    179.99999979	   1087.01632903	   -140.31116681	      8.17691531	    -15.01665901
      9.98000000	     37.68927505	     12.19613019	     16.81188268	   -122.79737533	    787.78389034	      6.55026680	     13.69908245	     40.64916746	     45.00000000	     40.70479573	    -17.00790953	  -2610.68877859	  -1379.88658010	     30.75039382	     53.79797493	   1812.28149127	    392.00101128	     19.05832145	      8.59314821	     -6.07137401	    -45.00000000	    -45.00000000	     45.00000000	     22.05284877	   2272.08893170	  -4600.85548364	     12.98310521	    179.99999979	   1086.88326939	   -140.45595676	      8.26060201	    -15.16827527
      9.99000000	     37.82824179	     12.29301408	     16.76512387	   -124.78839713	    788.83007036	      6.45621208	     13.96278214	     40.84915774	     45.00000000	     41.01170155	    -17.54127219	  -2610.71923582	  -1379.77186378	     30.98344340	     53.44752543	   1812.35901144	    392.14904739	     19.07813637	      8.45007607	     -6.09857517	    -45.00000000	    -45.00000000	     45.00000000	     22.46070674	   2272.35448329	  -4600.70456527	     13.09830192	    179.99999979	   1087.07511059	   -140.57324678	      8.36233571	    -15.21326413
